<svg xmlns="http://www.w3.org/2000/svg" viewBox="0 0 224 224">
<defs><filter id="grain"><feTurbulence type="fractalNoise" baseFrequency=".72" numOctaves="2" seed="8" result="n"/><feBlend in="SourceGraphic" in2="n" mode="multiply" result="b"/><feComposite in="b" in2="SourceGraphic" operator="in"/></filter></defs>
<g stroke="#1E1A17" stroke-width="7" stroke-linejoin="round" stroke-linecap="round">
<ellipse cx="112" cy="198" rx="73" ry="10" fill="#1E1A1720" stroke="none"/>
<g fill="#43546A" filter="url(#grain)"><path d="M76 78q35-20 70 0l18 82q-52 29-104 0z"/><path d="M87 53q24-26 50 0v32H87z"/></g>
<path d="M83 166l-11 31M143 166l12 31" fill="none"/><path d="M74 96L46 139M150 97l29 43" fill="none"/>
<g fill="#F2E7D5" stroke-width="6" transform="translate(18,0)"><path d="M130 100l56 16-4 12-56-14z"/><path d="M158 116l-7 24 11 3 7-24z"/><path d="M182 118l12 4"/></g>
<path d="M82 50q3-30 30-30t30 30z" fill="#3E4A38"/><path d="M76 50h72" stroke-width="6" fill="none"/>
<path d="M94 69h7M123 69h7"/>
</g>
<path d="M66 178q48 15 96-1" fill="none" stroke="#fff" stroke-opacity=".16" stroke-width="4"/>
</svg>
